<?xml version="1.0" encoding="utf-8"?>
<svg version="1.1" xmlns="http://www.w3.org/2000/svg" viewBox="0 0 89.841 51">
<path fill="#E7302A" d="M78.37,0 L77.825,2.559 L86.682,2.559 L76.914,48.444 L68.058,48.444 L67.514,51 L78.985,51 L89.841,0 L78.37,0 Z"/>
<path fill="#E7302A" d="M12.056,48.441 L3.161,48.441 L12.929,2.557 L21.823,2.557 L22.368,0 L10.858,0 L0,51 L11.512,51 L12.056,48.441 Z"/>
<path fill="#E7302A" d="M48.897,17.425 C48.807,16.625 48.723,15.875 48.645,15.174 C48.566,14.473 48.495,13.793 48.432,13.135 C48.369,12.48 48.316,11.84 48.272,11.217 C48.229,10.594 48.198,9.953 48.18,9.308 C47.912,9.965 47.646,10.575 47.379,11.133 C47.11,11.712 46.829,12.292 46.508,12.87 C46.173,13.516 45.838,14.205 45.475,14.851 C45.112,15.497 44.69,16.249 44.209,17.103 L38.801,26.775 L49.836,26.775 L48.897,17.425 Z M36.987,29.925 L34.324,34.824 C34.014,35.379 33.751,35.959 33.564,36.556 C33.407,36.984 33.222,37.434 33.21,37.89 C33.167,38.482 33.454,39.05 33.956,39.367 C34.673,39.728 35.474,39.888 36.274,39.834 L37.366,39.834 L36.753,42.738 L22.579,42.738 L23.165,39.834 L24.313,39.834 C24.759,39.842 25.204,39.783 25.632,39.659 C26.044,39.526 26.422,39.304 26.738,39 C27.154,38.607 27.524,38.169 27.842,37.694 C28.224,37.145 28.663,36.445 29.161,35.595 L47.679,3.779 L55.141,3.779 L59.723,35.915 C59.803,36.447 59.923,36.973 60.083,37.486 C60.215,37.929 60.417,38.347 60.683,38.726 C60.927,39.07 61.252,39.348 61.629,39.538 C62.073,39.748 62.562,39.849 63.054,39.831 L64.04,39.831 L63.454,42.736 L45.438,42.736 L46.024,39.831 L47.276,39.831 C48.24,39.875 49.2,39.687 50.077,39.285 C50.743,38.966 51.153,38.277 51.116,37.54 C51.116,37.24 51.106,36.939 51.09,36.646 C51.074,36.353 51.049,35.781 51.014,35.511 L50.188,29.623 L36.916,29.623 L36.916,29.925 L36.987,29.925 Z"/>
</svg>