<?xml version="1.0" encoding="UTF-8"?>
<svg xmlns="http://www.w3.org/2000/svg" width="1024" height="1024" viewBox="0 0 1024 1024">
  <!-- Background -->
  <rect width="1024" height="1024" rx="180" fill="#20394a"/>
  
  <!-- Left bracket -->
  <g transform="translate(180, 461)">
    <svg width="134" height="306" viewBox="0 0 22.366 51">
      <path
        fill="#e7302a"
        d="M12.598 48.442H3.703l9.768-45.884h8.894L22.91 0H11.4L.544 51h11.512z"
      />
    </svg>
  </g>
  
  <!-- A letter -->
  <g transform="translate(370, 395)">
    <svg width="284" height="267" viewBox="0 0 41.461 38.957">
      <path
        fill="#e7302a"
        d="m26.788 13.638-.252-2.251a92.936 92.936 0 0 1-.373-3.957c-.04-.623-.07-1.264-.09-1.919a34.03 34.03 0 0 1-.801 1.825 52.171 52.171 0 0 1-.854 1.705c-.303.578-.635 1.19-1 1.838l-1.266 2.252-5.408 9.672h11.035zm-11.91 12.5-2.663 4.899a11.43 11.43 0 0 0-.786 1.732 4.19 4.19 0 0 0-.254 1.334c-.04.592.244 1.16.746 1.477a4.483 4.483 0 0 0 2.318.467h1.092l-.613 2.904H.544l.586-2.904h1.148c.446 0 .891-.05 1.319-.174.412-.133.79-.355 1.106-.651a7.653 7.653 0 0 0 1.104-1.306c.382-.549.821-1.25 1.319-2.1L25.644 0h7.462l4.582 32.136c.08.532.2 1.058.36 1.571.132.443.334.861.6 1.24.244.344.569.622.946.812.444.21.933.311 1.425.293h.986l-.586 2.905H23.403l.586-2.905h1.252a6.11 6.11 0 0 0 2.801-.546 1.834 1.834 0 0 0 1.039-1.745c0-.3-.01-.601-.03-.894a19.25 19.25 0 0 0-.08-.84l-.826-5.888H14.873z"
      />
    </svg>
  </g>
  
  <!-- Right bracket -->
  <g transform="translate(710, 461)">
    <svg width="134" height="306" viewBox="0 0 22.327 51.001">
      <path
        fill="#e7302a"
        d="m11.4 0-.545 2.559h8.857L9.944 48.444H1.088l-.544 2.557h11.471l10.856-51H11.4z"
      />
    </svg>
  </g>
</svg>
